<?xml version="1.0" standalone="no"?>
<!DOCTYPE svg PUBLIC "-//W3C//DTD SVG 20010904//EN"
 "http://www.w3.org/TR/2001/REC-SVG-20010904/DTD/svg10.dtd">
<svg version="1.0" xmlns="http://www.w3.org/2000/svg"
 width="1000.000000pt" height="1000.000000pt" viewBox="0 0 1000.000000 1000.000000"
 preserveAspectRatio="xMidYMid meet">
<metadata>
Created by potrace 1.16, written by Peter Selinger 2001-2019
</metadata>
<g transform="translate(0.000000,1000.000000) scale(0.100000,-0.100000)"
fill="#000000" stroke="none">
<path d="M4605 9994 c-485 -37 -1062 -176 -1521 -369 -629 -264 -1159 -621
-1636 -1102 -196 -198 -289 -304 -443 -508 -491 -651 -806 -1385 -944 -2195
-52 -304 -56 -362 -56 -820 0 -493 10 -606 89 -1010 117 -596 384 -1237 740
-1773 303 -456 718 -896 1161 -1228 630 -474 1376 -795 2165 -933 291 -50 299
-51 835 -51 436 0 529 3 640 18 405 56 784 151 1132 283 542 205 1027 490
1481 871 150 126 449 425 575 575 637 759 1016 1618 1154 2613 15 111 18 204
18 640 0 443 -2 526 -18 630 -52 340 -96 543 -179 815 -364 1203 -1153 2206
-2248 2863 -152 91 -520 271 -695 340 -407 161 -774 255 -1240 319 -126 17
-214 20 -555 23 -223 1 -427 1 -455 -1z m672 -670 c158 -58 484 -178 723 -266
239 -88 561 -207 715 -263 930 -341 1112 -409 1126 -424 9 -9 364 -595 788
-1303 l772 -1287 -271 -1493 c-149 -821 -276 -1505 -283 -1519 -7 -15 -232
-213 -502 -441 -269 -228 -785 -664 -1145 -969 -360 -305 -666 -562 -680 -572
-23 -16 -120 -17 -1550 -17 l-1526 0 -390 328 c-2135 1798 -1961 1651 -1968
1669 -3 7 -14 70 -25 141 -11 70 -68 424 -126 787 -58 363 -112 703 -120 755
-8 52 -53 331 -99 620 -112 695 -112 695 -100 728 11 26 1528 2559 1544 2575
8 9 72 34 770 297 1161 437 1426 537 1705 644 165 63 312 114 327 115 15 1
156 -47 315 -105z"/>
<path d="M4685 9205 c-153 -58 -1060 -401 -1822 -688 -265 -100 -477 -184
-470 -188 11 -6 123 -47 812 -294 149 -53 375 -134 504 -181 128 -46 239 -84
245 -84 7 0 92 136 188 303 97 166 278 478 403 692 267 458 288 495 283 494
-1 0 -66 -25 -143 -54z"/>
<path d="M5110 9254 c0 -2 146 -256 324 -562 178 -306 453 -780 611 -1052 390
-671 456 -784 459 -787 2 -2 196 -72 432 -157 236 -85 838 -301 1338 -480 500
-180 911 -324 913 -322 6 6 -1416 2378 -1431 2388 -5 3 -80 32 -165 63 -86 32
-275 102 -421 155 -146 54 -632 233 -1080 398 -448 165 -852 314 -897 331 -46
17 -83 28 -83 25z"/>
<path d="M4835 9027 c-71 -122 -206 -355 -301 -517 -94 -162 -235 -404 -313
-538 -77 -134 -141 -245 -141 -247 0 -4 -76 23 1360 -492 146 -52 402 -144
569 -204 167 -60 306 -108 308 -105 2 2 -206 365 -463 807 -257 442 -557 959
-667 1149 -110 190 -205 351 -211 357 -9 10 -41 -39 -141 -210z"/>
<path d="M2280 8233 c0 -4 40 -245 90 -537 49 -292 137 -814 196 -1161 85
-508 146 -869 153 -905 1 -4 104 171 498 850 690 1187 683 1174 668 1183 -8 4
-133 50 -277 101 -145 52 -434 156 -643 231 -567 204 -685 245 -685 238z"/>
<path d="M1446 6956 l-718 -1197 32 -202 c39 -248 247 -1553 336 -2112 36
-225 69 -425 73 -444 6 -33 12 -25 163 235 86 148 411 707 722 1243 311 536
566 981 566 990 0 16 -24 158 -245 1476 -63 380 -134 798 -156 930 -22 132
-43 248 -47 258 -6 15 -180 -268 -726 -1177z"/>
<path d="M3757 7173 c-140 -241 -424 -730 -631 -1087 l-378 -649 47 -271 c47
-272 211 -1246 327 -1943 l63 -373 1230 0 1230 0 534 476 c484 430 581 512
1023 856 268 209 488 382 488 385 0 3 -108 191 -239 417 -131 226 -417 717
-634 1091 l-395 679 -399 143 c-219 79 -472 170 -563 202 -91 33 -340 123
-555 199 -214 77 -498 179 -630 226 -131 47 -244 86 -251 86 -7 0 -127 -197
-267 -437z"/>
<path d="M6611 6667 c12 -22 995 -1714 1113 -1917 34 -58 66 -104 71 -102 6 1
303 231 660 509 358 279 674 525 702 547 29 22 49 44 45 48 -4 4 -151 59 -327
122 -176 63 -585 209 -910 326 -532 191 -887 319 -1243 446 -115 41 -122 42
-111 21z"/>
<path d="M9215 5601 c-11 -10 -319 -252 -685 -536 -366 -284 -668 -520 -673
-524 -4 -4 44 -95 106 -202 62 -107 214 -367 337 -579 496 -855 460 -794 465
-788 4 3 85 442 185 998 32 179 92 510 134 735 41 226 93 514 116 640 22 127
43 240 45 253 6 27 -4 28 -30 3z"/>
<path d="M2648 5265 c-3 -6 -144 -248 -313 -540 -169 -291 -331 -570 -360
-620 -138 -234 -725 -1247 -725 -1251 0 -2 407 -4 905 -4 692 0 905 3 905 12
0 6 -56 345 -125 752 -68 408 -158 944 -200 1191 -82 489 -79 473 -87 460z"/>
<path d="M7268 4082 c-418 -325 -546 -431 -929 -772 -244 -217 -459 -410 -479
-427 l-35 -32 1433 -1 c788 0 1431 3 1429 8 -2 4 -83 142 -179 307 -96 165
-266 458 -378 650 -253 436 -371 639 -374 642 -2 2 -221 -167 -488 -375z"/>
<path d="M1325 2711 c11 -10 209 -178 440 -372 231 -195 685 -577 1008 -849
324 -272 593 -497 599 -499 6 -2 8 4 4 15 -3 11 -69 397 -146 859 -77 462
-143 846 -145 853 -3 9 -191 12 -892 12 -868 0 -887 0 -868 -19z"/>
<path d="M3210 2715 c0 -8 31 -201 70 -428 38 -226 103 -617 145 -867 42 -250
77 -459 78 -464 2 -5 334 286 738 645 404 360 852 759 997 887 144 128 262
235 262 238 0 2 -515 4 -1145 4 -1011 0 -1145 -2 -1145 -15z"/>
<path d="M5644 2692 c-22 -20 -485 -433 -1029 -917 l-989 -880 1418 -3 1417
-2 1072 906 c590 499 1079 913 1087 920 12 12 -217 14 -1460 14 l-1475 -1 -41
-37z"/>
</g>
</svg>
